<svg xmlns="http://www.w3.org/2000/svg" viewBox="0 0 32 32"><path fill="#fff" stroke="#000" stroke-width="1" stroke-linecap="round" d="M11.1 8.4V7.4h3L8.7 1.1 3.4 7.4h3.5v1.1c0 5.5 4.1 8.6 7.7 11.3 3.2 2.5 6 4.6 6 8v3.1h4.2v-3.1c0-5.5-4.1-8.6-7.7-11.3C13.9 14 11.1 11.9 11.1 8.4zM13.7 22.8c-0.3-0.2-0.6-0.5-0.9-0.7 -0.8-0.6-1.6-1.2-2.4-1.9 -1.8 2-3.2 4.3-3.2 7.5v3.1h4.2v-3.1C11.4 25.8 12.3 24.2 13.7 22.8L13.7 22.8zM20.9 7.4l0 1.1c0 2.1-1 3.7-2.6 5.2 0.2 0.2 0.4 0.3 0.6 0.5 0.9 0.7 1.8 1.4 2.7 2.1 2-2 3.5-4.5 3.5-7.8V7.4h3.6l-5.4-6.2 -5.4 6.2H20.9z"/></svg>